<mxfile host="Electron" agent="Mozilla/5.0 (Windows NT 10.0; Win64; x64) AppleWebKit/537.36 (KHTML, like Gecko) draw.io/27.0.9 Chrome/134.0.6998.205 Electron/35.4.0 Safari/537.36" version="27.0.9">
  <diagram id="C5RBs43oDa-KdzZeNtuy" name="Page-1">
    <mxGraphModel dx="1094" dy="815" grid="1" gridSize="10" guides="1" tooltips="1" connect="1" arrows="1" fold="1" page="1" pageScale="1" pageWidth="827" pageHeight="1169" math="0" shadow="0">
      <root>
        <mxCell id="WIyWlLk6GJQsqaUBKTNV-0" />
        <mxCell id="WIyWlLk6GJQsqaUBKTNV-1" parent="WIyWlLk6GJQsqaUBKTNV-0" />
        <mxCell id="U8kI0tqKMzNR2nNehozb-25" value="Inicio" style="ellipse;whiteSpace=wrap;html=1;aspect=fixed;" vertex="1" parent="WIyWlLk6GJQsqaUBKTNV-1">
          <mxGeometry x="364" y="40" width="80" height="40" as="geometry" />
        </mxCell>
        <mxCell id="U8kI0tqKMzNR2nNehozb-26" value="Estado: Bloqueado" style="rounded=0;whiteSpace=wrap;html=1;" vertex="1" parent="WIyWlLk6GJQsqaUBKTNV-1">
          <mxGeometry x="344" y="140" width="120" height="40" as="geometry" />
        </mxCell>
        <mxCell id="U8kI0tqKMzNR2nNehozb-27" value="Input Usuario" style="rhombus;whiteSpace=wrap;html=1;" vertex="1" parent="WIyWlLk6GJQsqaUBKTNV-1">
          <mxGeometry x="344" y="250" width="120" height="80" as="geometry" />
        </mxCell>
        <mxCell id="U8kI0tqKMzNR2nNehozb-28" value="¿Estado Bloqueado?" style="rhombus;whiteSpace=wrap;html=1;" vertex="1" parent="WIyWlLk6GJQsqaUBKTNV-1">
          <mxGeometry x="224" y="340" width="120" height="80" as="geometry" />
        </mxCell>
        <mxCell id="U8kI0tqKMzNR2nNehozb-29" value="Cambiar a Desbloqueado\nMoneda aceptada" style="rounded=0;whiteSpace=wrap;html=1;" vertex="1" parent="WIyWlLk6GJQsqaUBKTNV-1">
          <mxGeometry x="30" y="460" width="160" height="60" as="geometry" />
        </mxCell>
        <mxCell id="U8kI0tqKMzNR2nNehozb-30" value="Mostrar: &quot;Ya desbloqueado&quot;" style="rounded=0;whiteSpace=wrap;html=1;" vertex="1" parent="WIyWlLk6GJQsqaUBKTNV-1">
          <mxGeometry x="224" y="500" width="160" height="60" as="geometry" />
        </mxCell>
        <mxCell id="U8kI0tqKMzNR2nNehozb-31" value="¿Estado Desbloqueado?" style="rhombus;whiteSpace=wrap;html=1;" vertex="1" parent="WIyWlLk6GJQsqaUBKTNV-1">
          <mxGeometry x="464" y="340" width="120" height="80" as="geometry" />
        </mxCell>
        <mxCell id="U8kI0tqKMzNR2nNehozb-32" value="Cambiar a Bloqueado\nEmpuje exitoso" style="rounded=0;whiteSpace=wrap;html=1;" vertex="1" parent="WIyWlLk6GJQsqaUBKTNV-1">
          <mxGeometry x="430" y="500" width="160" height="60" as="geometry" />
        </mxCell>
        <mxCell id="U8kI0tqKMzNR2nNehozb-33" value="Mostrar: &quot;No puede pasar&quot;" style="rounded=0;whiteSpace=wrap;html=1;" vertex="1" parent="WIyWlLk6GJQsqaUBKTNV-1">
          <mxGeometry x="620" y="460" width="160" height="60" as="geometry" />
        </mxCell>
        <mxCell id="U8kI0tqKMzNR2nNehozb-35" value="1" style="edgeStyle=none;html=1;exitX=0;exitY=1;exitDx=0;exitDy=0;" edge="1" parent="WIyWlLk6GJQsqaUBKTNV-1" source="U8kI0tqKMzNR2nNehozb-27" target="U8kI0tqKMzNR2nNehozb-28">
          <mxGeometry relative="1" as="geometry" />
        </mxCell>
        <mxCell id="U8kI0tqKMzNR2nNehozb-36" value="2" style="edgeStyle=none;html=1;" edge="1" parent="WIyWlLk6GJQsqaUBKTNV-1" source="U8kI0tqKMzNR2nNehozb-27" target="U8kI0tqKMzNR2nNehozb-31">
          <mxGeometry relative="1" as="geometry" />
        </mxCell>
        <mxCell id="U8kI0tqKMzNR2nNehozb-38" value="Sí" style="edgeStyle=none;html=1;" edge="1" parent="WIyWlLk6GJQsqaUBKTNV-1" source="U8kI0tqKMzNR2nNehozb-28" target="U8kI0tqKMzNR2nNehozb-29">
          <mxGeometry relative="1" as="geometry" />
        </mxCell>
        <mxCell id="U8kI0tqKMzNR2nNehozb-39" value="No" style="edgeStyle=none;html=1;" edge="1" parent="WIyWlLk6GJQsqaUBKTNV-1" source="U8kI0tqKMzNR2nNehozb-28" target="U8kI0tqKMzNR2nNehozb-30">
          <mxGeometry relative="1" as="geometry" />
        </mxCell>
        <mxCell id="U8kI0tqKMzNR2nNehozb-40" value="Sí" style="edgeStyle=none;html=1;" edge="1" parent="WIyWlLk6GJQsqaUBKTNV-1" source="U8kI0tqKMzNR2nNehozb-31" target="U8kI0tqKMzNR2nNehozb-32">
          <mxGeometry relative="1" as="geometry" />
        </mxCell>
        <mxCell id="U8kI0tqKMzNR2nNehozb-41" value="No" style="edgeStyle=none;html=1;" edge="1" parent="WIyWlLk6GJQsqaUBKTNV-1" source="U8kI0tqKMzNR2nNehozb-31" target="U8kI0tqKMzNR2nNehozb-33">
          <mxGeometry relative="1" as="geometry" />
        </mxCell>
        <mxCell id="U8kI0tqKMzNR2nNehozb-42" value="" style="edgeStyle=none;html=1;entryX=0.5;entryY=1;entryDx=0;entryDy=0;" edge="1" parent="WIyWlLk6GJQsqaUBKTNV-1" source="U8kI0tqKMzNR2nNehozb-29" target="U8kI0tqKMzNR2nNehozb-26">
          <mxGeometry relative="1" as="geometry" />
        </mxCell>
        <mxCell id="U8kI0tqKMzNR2nNehozb-45" value="" style="edgeStyle=none;html=1;entryX=0.5;entryY=1;entryDx=0;entryDy=0;" edge="1" parent="WIyWlLk6GJQsqaUBKTNV-1" source="U8kI0tqKMzNR2nNehozb-33" target="U8kI0tqKMzNR2nNehozb-26">
          <mxGeometry relative="1" as="geometry" />
        </mxCell>
        <mxCell id="U8kI0tqKMzNR2nNehozb-47" value="" style="edgeStyle=none;html=1;" edge="1" parent="WIyWlLk6GJQsqaUBKTNV-1" source="U8kI0tqKMzNR2nNehozb-25" target="U8kI0tqKMzNR2nNehozb-26">
          <mxGeometry relative="1" as="geometry" />
        </mxCell>
        <mxCell id="U8kI0tqKMzNR2nNehozb-48" value="" style="edgeStyle=none;html=1;" edge="1" parent="WIyWlLk6GJQsqaUBKTNV-1" source="U8kI0tqKMzNR2nNehozb-26" target="U8kI0tqKMzNR2nNehozb-27">
          <mxGeometry relative="1" as="geometry" />
        </mxCell>
      </root>
    </mxGraphModel>
  </diagram>
</mxfile>
